<mxfile host="app.diagrams.net" modified="2022-03-12T05:50:05.175Z" agent="5.0 (Windows NT 10.0; Win64; x64) AppleWebKit/537.36 (KHTML, like Gecko) Chrome/99.0.4844.51 Safari/537.36" etag="xpYb0TWgCI32NRDyN0Qz" version="17.1.1" type="github">
  <diagram id="-5l1G-GI6gvGcGKiTMmH" name="Page-1">
    <mxGraphModel dx="1038" dy="513" grid="1" gridSize="10" guides="1" tooltips="1" connect="1" arrows="1" fold="1" page="1" pageScale="1" pageWidth="413" pageHeight="583" math="0" shadow="0">
      <root>
        <mxCell id="0" />
        <mxCell id="1" parent="0" />
        <object label="User" placeholders="1" id="EK3RWtDszpUiXcxNHKD7-1">
          <mxCell style="shape=umlActor;verticalLabelPosition=bottom;verticalAlign=top;html=1;" parent="1" vertex="1">
            <mxGeometry x="70" y="445" width="30" height="60" as="geometry" />
          </mxCell>
        </object>
        <mxCell id="YEuSQ8GJd0XASIDwMLyI-14" value="Service Administrator" style="shape=umlActor;verticalLabelPosition=bottom;verticalAlign=top;html=1;" parent="1" vertex="1">
          <mxGeometry x="720" y="130" width="30" height="60" as="geometry" />
        </mxCell>
        <mxCell id="YEuSQ8GJd0XASIDwMLyI-36" value="Billing Administrator" style="shape=umlActor;verticalLabelPosition=bottom;verticalAlign=top;html=1;" parent="1" vertex="1">
          <mxGeometry x="730" y="445" width="30" height="60" as="geometry" />
        </mxCell>
        <mxCell id="Hy7eaBjnk-40Ls4xIKG4-1" value="" style="swimlane;startSize=0;" vertex="1" parent="1">
          <mxGeometry x="150" y="175" width="509" height="360" as="geometry">
            <mxRectangle x="150" y="175" width="50" height="40" as="alternateBounds" />
          </mxGeometry>
        </mxCell>
        <mxCell id="EK3RWtDszpUiXcxNHKD7-2" value="Display Bible Verse&amp;nbsp;" style="ellipse;whiteSpace=wrap;html=1;" parent="Hy7eaBjnk-40Ls4xIKG4-1" vertex="1">
          <mxGeometry x="49" y="100" width="140" height="70" as="geometry" />
        </mxCell>
        <mxCell id="YEuSQ8GJd0XASIDwMLyI-3" value="Azure App Service" style="ellipse;whiteSpace=wrap;html=1;" parent="Hy7eaBjnk-40Ls4xIKG4-1" vertex="1">
          <mxGeometry x="330" y="30" width="140" height="70" as="geometry" />
        </mxCell>
        <mxCell id="YEuSQ8GJd0XASIDwMLyI-2" value="Azure Database for MySQL flexible server" style="ellipse;whiteSpace=wrap;html=1;" parent="Hy7eaBjnk-40Ls4xIKG4-1" vertex="1">
          <mxGeometry x="330" y="140" width="140" height="70" as="geometry" />
        </mxCell>
        <mxCell id="YEuSQ8GJd0XASIDwMLyI-4" value="Billing and management" style="ellipse;whiteSpace=wrap;html=1;" parent="Hy7eaBjnk-40Ls4xIKG4-1" vertex="1">
          <mxGeometry x="330" y="260" width="140" height="70" as="geometry" />
        </mxCell>
        <mxCell id="YEuSQ8GJd0XASIDwMLyI-1" value="Display Songs&lt;span style=&quot;color: rgba(0 , 0 , 0 , 0) ; font-family: monospace ; font-size: 0px&quot;&gt;%3CmxGraphModel%3E%3Croot%3E%3CmxCell%20id%3D%220%22%2F%3E%3CmxCell%20id%3D%221%22%20parent%3D%220%22%2F%3E%3CmxCell%20id%3D%222%22%20value%3D%22Display%20Bible%20Verse%22%20style%3D%22ellipse%3BwhiteSpace%3Dwrap%3Bhtml%3D1%3B%22%20vertex%3D%221%22%20parent%3D%221%22%3E%3CmxGeometry%20x%3D%22160%22%20y%3D%2230%22%20width%3D%22140%22%20height%3D%2270%22%20as%3D%22geometry%22%2F%3E%3C%2FmxCell%3E%3C%2Froot%3E%3C%2FmxGraphModel%3E&lt;/span&gt;" style="ellipse;whiteSpace=wrap;html=1;" parent="Hy7eaBjnk-40Ls4xIKG4-1" vertex="1">
          <mxGeometry x="49" y="210" width="140" height="70" as="geometry" />
        </mxCell>
        <mxCell id="Hy7eaBjnk-40Ls4xIKG4-20" value="" style="endArrow=classic;html=1;rounded=0;exitX=0.5;exitY=0.5;exitDx=0;exitDy=0;exitPerimeter=0;entryX=0;entryY=0.5;entryDx=0;entryDy=0;" edge="1" parent="Hy7eaBjnk-40Ls4xIKG4-1" target="EK3RWtDszpUiXcxNHKD7-2">
          <mxGeometry width="50" height="50" relative="1" as="geometry">
            <mxPoint x="-50" y="300.21000000000004" as="sourcePoint" />
            <mxPoint x="345.7799242941521" y="329.9998867748287" as="targetPoint" />
          </mxGeometry>
        </mxCell>
        <mxCell id="Hy7eaBjnk-40Ls4xIKG4-19" value="" style="endArrow=classic;html=1;rounded=0;exitX=0.5;exitY=0.5;exitDx=0;exitDy=0;exitPerimeter=0;entryX=0;entryY=0.5;entryDx=0;entryDy=0;" edge="1" parent="Hy7eaBjnk-40Ls4xIKG4-1" target="YEuSQ8GJd0XASIDwMLyI-1">
          <mxGeometry width="50" height="50" relative="1" as="geometry">
            <mxPoint x="-50" y="300.21000000000004" as="sourcePoint" />
            <mxPoint x="345.7799242941521" y="329.9998867748287" as="targetPoint" />
          </mxGeometry>
        </mxCell>
        <object label="Project Owner" placeholders="1" id="Hy7eaBjnk-40Ls4xIKG4-3">
          <mxCell style="shape=umlActor;verticalLabelPosition=bottom;verticalAlign=top;html=1;" vertex="1" parent="1">
            <mxGeometry x="400" y="48" width="30" height="60" as="geometry" />
          </mxCell>
        </object>
        <mxCell id="Hy7eaBjnk-40Ls4xIKG4-8" value="" style="endArrow=classic;html=1;rounded=0;" edge="1" parent="1" target="YEuSQ8GJd0XASIDwMLyI-3">
          <mxGeometry width="50" height="50" relative="1" as="geometry">
            <mxPoint x="420" y="128" as="sourcePoint" />
            <mxPoint x="440" y="355" as="targetPoint" />
          </mxGeometry>
        </mxCell>
        <mxCell id="Hy7eaBjnk-40Ls4xIKG4-9" value="" style="endArrow=classic;html=1;rounded=0;entryX=0;entryY=0;entryDx=0;entryDy=0;" edge="1" parent="1" target="YEuSQ8GJd0XASIDwMLyI-2">
          <mxGeometry width="50" height="50" relative="1" as="geometry">
            <mxPoint x="420" y="128" as="sourcePoint" />
            <mxPoint x="490.7799242941521" y="244.7898867748287" as="targetPoint" />
          </mxGeometry>
        </mxCell>
        <mxCell id="Hy7eaBjnk-40Ls4xIKG4-10" value="" style="endArrow=classic;html=1;rounded=0;entryX=0;entryY=0.5;entryDx=0;entryDy=0;" edge="1" parent="1" target="YEuSQ8GJd0XASIDwMLyI-4">
          <mxGeometry width="50" height="50" relative="1" as="geometry">
            <mxPoint x="420" y="128" as="sourcePoint" />
            <mxPoint x="500.7799242941521" y="254.7898867748287" as="targetPoint" />
          </mxGeometry>
        </mxCell>
        <mxCell id="Hy7eaBjnk-40Ls4xIKG4-11" value="" style="endArrow=classic;html=1;rounded=0;" edge="1" parent="1" target="EK3RWtDszpUiXcxNHKD7-2">
          <mxGeometry width="50" height="50" relative="1" as="geometry">
            <mxPoint x="420" y="128" as="sourcePoint" />
            <mxPoint x="510.7799242941521" y="227.7898867748287" as="targetPoint" />
          </mxGeometry>
        </mxCell>
        <mxCell id="Hy7eaBjnk-40Ls4xIKG4-12" value="" style="endArrow=classic;html=1;rounded=0;entryX=1;entryY=0.5;entryDx=0;entryDy=0;" edge="1" parent="1" target="YEuSQ8GJd0XASIDwMLyI-1">
          <mxGeometry width="50" height="50" relative="1" as="geometry">
            <mxPoint x="420" y="128" as="sourcePoint" />
            <mxPoint x="520.7799242941521" y="237.7898867748287" as="targetPoint" />
          </mxGeometry>
        </mxCell>
        <mxCell id="Hy7eaBjnk-40Ls4xIKG4-16" value="" style="endArrow=classic;html=1;rounded=0;" edge="1" parent="1" target="YEuSQ8GJd0XASIDwMLyI-3">
          <mxGeometry width="50" height="50" relative="1" as="geometry">
            <mxPoint x="720" y="220" as="sourcePoint" />
            <mxPoint x="530.7799242941521" y="219.7898867748287" as="targetPoint" />
          </mxGeometry>
        </mxCell>
        <mxCell id="Hy7eaBjnk-40Ls4xIKG4-17" value="" style="endArrow=classic;html=1;rounded=0;entryX=1.003;entryY=0.389;entryDx=0;entryDy=0;entryPerimeter=0;" edge="1" parent="1" target="YEuSQ8GJd0XASIDwMLyI-2">
          <mxGeometry width="50" height="50" relative="1" as="geometry">
            <mxPoint x="720" y="220" as="sourcePoint" />
            <mxPoint x="540.7799242941521" y="229.7898867748287" as="targetPoint" />
          </mxGeometry>
        </mxCell>
        <mxCell id="Hy7eaBjnk-40Ls4xIKG4-18" value="" style="endArrow=classic;html=1;rounded=0;entryX=1;entryY=0.5;entryDx=0;entryDy=0;" edge="1" parent="1" target="YEuSQ8GJd0XASIDwMLyI-4">
          <mxGeometry width="50" height="50" relative="1" as="geometry">
            <mxPoint x="720" y="220" as="sourcePoint" />
            <mxPoint x="550.7799242941521" y="239.7898867748287" as="targetPoint" />
          </mxGeometry>
        </mxCell>
        <mxCell id="Hy7eaBjnk-40Ls4xIKG4-21" value="" style="endArrow=classic;html=1;rounded=0;entryX=1;entryY=1;entryDx=0;entryDy=0;" edge="1" parent="1" target="YEuSQ8GJd0XASIDwMLyI-4">
          <mxGeometry width="50" height="50" relative="1" as="geometry">
            <mxPoint x="720" y="495" as="sourcePoint" />
            <mxPoint x="885.7799242941521" y="582.7898867748287" as="targetPoint" />
          </mxGeometry>
        </mxCell>
      </root>
    </mxGraphModel>
  </diagram>
</mxfile>
